<?xml version="1.0" encoding="UTF-8" standalone="no"?>
<!-- Created with Inkscape (http://www.inkscape.org/) -->
<svg width="370" height="430" id="svg8567" sodipodi:version="0.32" inkscape:version="1.1.2 (0a00cf5339, 2022-02-04)" version="1.0" sodipodi:docname="linuxday.svg" inkscape:output_extension="org.inkscape.output.svg.inkscape" sodipodi:modified="true" inkscape:export-filename="/tmp/linuxday.png" inkscape:export-xdpi="90" inkscape:export-ydpi="90" xmlns:inkscape="http://www.inkscape.org/namespaces/inkscape" xmlns:sodipodi="http://sodipodi.sourceforge.net/DTD/sodipodi-0.dtd" xmlns:xlink="http://www.w3.org/1999/xlink" xmlns="http://www.w3.org/2000/svg" xmlns:svg="http://www.w3.org/2000/svg" xmlns:rdf="http://www.w3.org/1999/02/22-rdf-syntax-ns#" xmlns:cc="http://creativecommons.org/ns#" xmlns:dc="http://purl.org/dc/elements/1.1/">
  <defs id="defs8569">
    <linearGradient id="linearGradient21792">
      <stop style="stop-color:#ffb904;stop-opacity:1;" offset="0" id="stop21794"/>
      <stop style="stop-color:#f89900;stop-opacity:1;" offset="1" id="stop21796"/>
    </linearGradient>
    <linearGradient id="linearGradient18290">
      <stop style="stop-color:#ffda01;stop-opacity:1;" offset="0" id="stop18292"/>
      <stop style="stop-color:#ff9e01;stop-opacity:1;" offset="1" id="stop18294"/>
    </linearGradient>
    <linearGradient id="linearGradient15658">
      <stop style="stop-color:#f8a900;stop-opacity:1;" offset="0" id="stop15660"/>
      <stop id="stop16542" offset="0.85714287" style="stop-color:#ffce02;stop-opacity:0.49803922;"/>
      <stop style="stop-color:#ffda01;stop-opacity:0;" offset="1" id="stop15662"/>
    </linearGradient>
    <linearGradient id="linearGradient14773">
      <stop style="stop-color:#ffffff;stop-opacity:1;" offset="0" id="stop14775"/>
      <stop style="stop-color:#ffffff;stop-opacity:0;" offset="1" id="stop14777"/>
    </linearGradient>
    <linearGradient inkscape:collect="always" xlink:href="#linearGradient14773" id="linearGradient14779" x1="189.5" y1="159.09448" x2="207" y2="262.09448" gradientUnits="userSpaceOnUse" gradientTransform="translate(-11.49675,-88.138337)"/>
    <radialGradient inkscape:collect="always" xlink:href="#linearGradient15658" id="radialGradient15664" cx="188" cy="368.09448" fx="188" fy="368.09448" r="87" gradientTransform="matrix(1.16092,-1.3362736e-6,6.4018922e-7,0.59195397,-41.749839,67.561345)" gradientUnits="userSpaceOnUse"/>
    <linearGradient inkscape:collect="always" xlink:href="#linearGradient18290" id="linearGradient18296" x1="341.33981" y1="-108.89819" x2="466.39041" y2="317.3226" gradientUnits="userSpaceOnUse" gradientTransform="matrix(0.709222,0,0,0.743746,-131.92665,121.94876)"/>
    <radialGradient inkscape:collect="always" xlink:href="#linearGradient21792" id="radialGradient21802" gradientUnits="userSpaceOnUse" gradientTransform="matrix(2.442072,0.761195,-0.505901,1.623035,-141.78375,-388.69644)" cx="169.51411" cy="252.37883" fx="169.51411" fy="252.37883" r="94.353302"/>
  </defs>
  <sodipodi:namedview id="base" pagecolor="#ffffff" bordercolor="#666666" borderopacity="1.0" inkscape:pageopacity="1" inkscape:pageshadow="2" inkscape:zoom="0.5" inkscape:cx="403" inkscape:cy="366" inkscape:document-units="px" inkscape:current-layer="layer1" inkscape:window-width="1920" inkscape:window-height="1043" inkscape:window-x="0" inkscape:window-y="0" showgrid="false" inkscape:window-maximized="1" inkscape:pagecheckerboard="0" units="px"/>
  <metadata id="metadata8572">
    <rdf:RDF>
      <cc:Work rdf:about="">
        <dc:format>image/svg+xml</dc:format>
        <dc:type rdf:resource="http://purl.org/dc/dcmitype/StillImage"/>
      </cc:Work>
    </rdf:RDF>
  </metadata>
  <g inkscape:label="Layer 1" inkscape:groupmode="layer" id="layer1">
    <g id="g1300" transform="translate(0,-1.5295549)">
      <path style="fill:#c3c3c3;fill-opacity:1;fill-rule:evenodd;stroke:none;stroke-width:1px;stroke-linecap:butt;stroke-linejoin:miter;stroke-opacity:1" d="m 97.57277,353.56577 -15.08021,4.7754 9.04812,25.13369 c 0,0 -7.28877,9.29946 -12.56684,7.54011 -5.27808,-1.75936 -11.81284,-16.08557 -15.33155,-25.13369 -3.51872,-9.04813 -6.53476,-13.5722 -10.30481,-14.07487 -3.77006,-0.50267 -13.06952,1.75936 -18.59894,4.02139 -5.52941,2.26203 -17.34224,9.29947 -17.34224,9.29947 l 18.59893,16.58823 -10.05348,34.68449 c 0,0 23.62567,-17.84492 28.65241,-18.85026 5.02674,-1.00535 7.79144,-1.50803 12.81818,5.02673 5.02674,6.53476 9.5508,25.13369 20.86096,26.39038 11.31016,1.25668 34.18182,-22.36899 34.18182,-22.36899 l -2.01069,-13.57219 c 0,0 31.41711,-13.82353 55.54545,-13.82353 24.12834,0 60.06952,2.0107 66.60428,0.25134 6.53476,-1.75936 29.65775,-10.55615 29.65775,-10.55615 l -1.25668,14.82888 c 0,0 44.9893,-24.37968 54.03743,-22.62032 9.04813,1.75935 38.45455,21.86631 38.45455,21.86631 l -8.04278,-29.40642 12.56684,-20.86096 c 0,0 -30.6631,-9.29947 -38.20321,-8.04279 -7.5401,1.25669 -30.91444,10.80749 -30.91444,10.80749 0,0 -1.25668,-6.03208 0.75402,-11.05882 2.01069,-5.02674 2.7647,-12.31551 2.7647,-12.31551 l 17.84492,-0.75401 -6.7861,-26.64171 25.63637,-4.27273 -14.07487,-24.63102 26.89305,-8.79679 -21.86631,-23.37433 27.8984,-13.06952 -26.39038,-17.59358 25.63636,-18.09626 -32.17112,-12.06417 24.37968,-24.12834 -33.93048,-2.26203 20.60963,-30.91444 -36.44385,6.53476 16.83957,-36.946527 -37.19786,17.09091 12.3155,-42.2246 -35.4385,27.64706 6.28342,-47.75401 -30.91443,34.93583 -2.0107,-48.25668 -24.63102,41.47059 -9.04812,-47.754015 -16.08557,45.240645 -19.35294,-44.737971 -9.29946,49.262031 -24.12834,-41.47059 -2.0107,50.77006 -30.16043,-36.44385 9.29947,46.49732 -37.70054,-25.63636 13.82353,40.46524 -38.45454,-14.82888 20.35829,36.946527 -39.20856,-5.27808 20.86096,28.90374 -33.67914,5.27808 23.877,23.12299 -29.90909,12.81819 24.88235,16.83957 -24.37967,19.35294 25.63636,12.56684 -18.34759,23.123 25.8877,7.28877 -12.56685,26.13904 27.14439,3.01604 -6.7861,26.89305 24.12834,0.25133 0.50268,24.88236 23.62567,-4.27273 z" id="path9252"/>
      <path style="fill:#000000;fill-opacity:1;stroke:none;stroke-width:3.75;stroke-linejoin:round;stroke-miterlimit:4;stroke-opacity:1" d="m 293.98332,332.11621 -23.93682,-4.17924 -4.67919,25.0067 -22.70057,-9.00351 -9.23438,23.56746 -20.59194,-13.48177 -13.43466,21.22252 -17.692,-17.44194 -17.11867,18.06201 -14.11215,-20.73184 -20.14482,14.20741 -9.98997,-23.22502 -22.39681,9.8068 -5.48391,-24.82567 -23.78812,5.02935 -0.76708,-25.4723 -24.26525,0.0586 7.05747,-26.68146 -26.88814,-3.37295 12.1639,-25.89692 L 9.9494,247.12121 28.94244,223.95271 2.57912,211.38421 27.39498,192.28909 1.98873,174.82375 32.50224,163.08516 8.2009,138.84483 42.11434,134.51851 20.97692,104.83008 60.00571,109.86071 39.8258,74.086683 l 38.61837,14.09511 -14.42098,-40.38571 37.78895,25.24581 -9.17295,-46.07327 30.39621,36.74971 1.53874,-51.31367 24.69629,41.74181 9.33031,-49.482554 19.23112,44.674344 15.57955,-45.294406 10.00782,46.936606 24.24915,-40.412171 1.26827,48.402151 31.11851,-34.98394 -6.31604,47.43371 35.58806,-27.63738 -12.572,42.94213 37.60435,-17.52843 -16.80528,36.957837 36.63594,-6.903427 -20.88561,31.035087 34.75252,2.50507 -24.63651,24.19613 32.00679,11.54087 -26.35499,18.5813 26.94538,17.97915 -28.46134,12.76624 22.24917,23.21267 -26.73085,8.95071 13.95483,25.06405 -25.68969,3.70428 6.8408,27.03912 -24.25316,0.80564 z" id="path22677" sodipodi:nodetypes="ccccccccccccccccccccccccccccccccccccccccccccccccccccccccccccccccc"/>
      <path style="fill:url(#linearGradient18296);fill-opacity:1;stroke:none;stroke-width:3.75;stroke-linejoin:round;stroke-miterlimit:4;stroke-opacity:1" d="m 290.06044,327.29293 -23.3283,-4.06684 -4.56024,24.33417 -22.12348,-8.76137 -8.99961,22.93363 -20.06847,-13.11919 -13.09313,20.65175 -17.24224,-16.97286 -16.68349,17.57625 -13.75339,-20.17427 -19.63271,13.82531 -9.73602,-22.6004 -21.82745,9.54306 -5.3445,-24.158 -23.18337,4.89408 -0.74758,-24.78723 -23.64839,0.057 6.87806,-25.96389 L 26.76153,277.2219 38.61621,252.02147 13.24714,244.58378 31.75735,222.0384 6.06423,209.80792 30.24923,191.22634 5.48884,174.23073 35.22665,162.80783 11.5431,139.21944 44.5944,135.00948 23.99432,106.1195 62.03094,111.01484 42.36403,76.202923 80.00066,89.918953 65.94629,50.619396 l 36.82829,24.566837 -8.93975,-44.834161 29.62348,35.761361 1.49961,-49.933627 24.06847,40.619197 9.09313,-48.15176 18.74224,43.47286 15.18348,-44.076246 9.7534,45.674266 23.6327,-39.3253 1.23603,47.1004 30.32745,-34.043069 -6.15551,46.157999 34.68338,-26.89407 -12.25241,41.78722 36.64838,-17.05702 -16.37806,35.963887 35.7046,-6.71777 -20.35467,30.20043 33.86906,2.4377 -24.01021,23.54537 31.19312,11.23049 -25.685,18.08157 26.26038,17.49561 -27.7378,12.4229 21.68355,22.58839 -26.0513,8.70997 13.60007,24.38997 -25.0366,3.60466 6.6669,26.31192 -23.63663,0.78398 z" id="path10371" sodipodi:nodetypes="ccccccccccccccccccccccccccccccccccccccccccccccccccccccccccccccccc"/>
      <ellipse style="fill:#fee900;fill-opacity:1;stroke:none;stroke-width:10.0193;stroke-miterlimit:4;stroke-dasharray:none;stroke-opacity:1" id="path8575" cx="179.50348" cy="202.60039" rx="136.08722" ry="136.40619"/>
      <ellipse style="fill:url(#linearGradient14779);fill-opacity:1;stroke:none;stroke-width:8;stroke-linejoin:round;stroke-miterlimit:4;stroke-dasharray:none;stroke-opacity:1" id="path13898" cx="178.00325" cy="201.95615" rx="126.5" ry="131"/>
      <ellipse style="fill:url(#radialGradient15664);fill-opacity:1;stroke:none;stroke-width:9.43323;stroke-linejoin:round;stroke-miterlimit:4;stroke-dasharray:none;stroke-opacity:1" id="path14783" cx="176.50331" cy="285.45596" rx="101.00004" ry="51.499981"/>
      <path style="fill:#000000;fill-opacity:1;fill-rule:evenodd;stroke:none;stroke-width:8.34331;stroke-linecap:butt;stroke-linejoin:round;stroke-miterlimit:4;stroke-dasharray:none;stroke-opacity:1" d="m 196.36827,334.28929 c 40.24483,-5.32179 29.55783,-49.24461 40.55023,-85.76957 11.33292,-37.6565 59.51627,-94.50807 40.93246,-116.53246 -21.68491,-25.69961 -38.11288,-13.17927 -50.59812,-21.74582 -12.48526,-8.56653 -19.71356,-34.266137 -47.96966,-33.607167 -28.25609,0.65897 -31.54168,33.607167 -44.02693,33.607167 -12.48525,0 -30.88456,-17.133057 -46.65542,13.17929 -11.14753,21.42611 1.40891,89.81512 17.74219,127.1801 21.02779,48.10439 44.68407,85.00639 90.02525,83.68846 z" id="path9492" sodipodi:nodetypes="csssssssc"/>
      <path style="fill:url(#radialGradient21802);fill-opacity:1;fill-rule:evenodd;stroke:none;stroke-width:8.34331;stroke-linecap:butt;stroke-linejoin:round;stroke-miterlimit:4;stroke-dasharray:none;stroke-opacity:1" d="m 194.05792,329.27395 c 38.41281,-5.13592 28.2123,-47.52478 38.7043,-82.77414 10.81702,-36.34138 56.80697,-91.20746 39.06913,-112.46267 -20.69777,-24.80207 -36.3779,-12.719 -48.29479,-20.98637 -11.91691,-8.26735 -18.81616,-33.069417 -45.78598,-32.433457 -26.96982,0.63595 -30.10584,32.433457 -42.02274,32.433457 -11.9169,0 -29.47864,-16.534697 -44.53157,12.71902 -10.64007,20.67782 1.34478,86.67841 16.93453,122.73845 20.07057,46.42439 42.64996,82.03761 85.92712,80.76571 z" id="path21800" sodipodi:nodetypes="csssssssc"/>
      <g id="g8352" transform="matrix(0.951351,0,0,1.232923,0.18435,-188.69924)">
        <g transform="translate(8,-10)" id="g6594">
          <path style="fill:#000000;fill-opacity:1;fill-rule:evenodd;stroke:none;stroke-width:1px;stroke-linecap:butt;stroke-linejoin:miter;stroke-opacity:1" d="m 119,488.09448 c 0,0 -23,19 -36,18 -13,-1 -20,-29 -34,-26 -14,3 -33,17 -33,17 l 12,-29 -22,-15 c 0,0 32,-15 42,-9 10,6 14,35 27,34 13,-1 26,-22 32,-22 6,0 12,31 12,32 z" id="path3090"/>
          <path style="fill:#0ff000;fill-opacity:1;fill-rule:evenodd;stroke:none;stroke-width:1px;stroke-linecap:butt;stroke-linejoin:miter;stroke-opacity:1" d="m 113.5,484.48936 c 0,0 -20.761062,17.20343 -32.495576,16.298 -11.734512,-0.90545 -18.053097,-26.2579 -30.690265,-23.54156 -12.637168,2.71634 -29.78761,15.39256 -29.78761,15.39256 L 31.358407,466.38046 11.5,452.7988 c 0,0 28.884956,-13.58167 37.911505,-8.149 9.026548,5.43266 12.637168,31.69055 24.371681,30.78511 11.734513,-0.90545 23.469026,-19.91978 28.884954,-19.91978 5.41593,0 10.83186,28.06878 10.83186,28.97423 z" id="path3965"/>
        </g>
        <g transform="translate(-5,-1)" id="g6590">
          <path style="fill:#000000;fill-opacity:1;fill-rule:evenodd;stroke:none;stroke-width:1px;stroke-linecap:butt;stroke-linejoin:miter;stroke-opacity:1" d="m 288,432.09448 c 4,14 -1,28 -1,28 0,0 41,-16 55,-18 14,-2 43,18 43,18 l -9,-24 13,-17 c 0,0 -37,-9 -49,-5 -12,4 -51,16 -52,18 z" id="path4840"/>
          <path style="fill:#fb0000;fill-opacity:1;fill-rule:evenodd;stroke:none;stroke-width:1px;stroke-linecap:butt;stroke-linejoin:miter;stroke-opacity:1" d="M 291.92157,430.77489 C 295.60784,442.69089 291,454.60688 291,454.60688 c 0,0 37.78431,-13.61828 50.68627,-15.32056 12.90197,-1.70229 39.62746,15.32056 39.62746,15.32056 L 373.01961,434.17946 385,419.71004 c 0,0 -34.09804,-7.66028 -45.15686,-4.25571 -11.05883,3.40457 -47,13.61828 -47.92157,15.32056 z" id="path5715"/>
        </g>
        <path id="path6602" d="m 124,475.09448 -27,4 17,-20 z" style="fill:#000000;fill-opacity:1;fill-rule:evenodd;stroke:#000000;stroke-width:1px;stroke-linecap:butt;stroke-linejoin:miter;stroke-opacity:1"/>
        <path id="path7477" d="m 284,455.09448 31,-21 -28,-8 z" style="fill:#000000;fill-opacity:1;fill-rule:evenodd;stroke:#000000;stroke-width:1px;stroke-linecap:butt;stroke-linejoin:miter;stroke-opacity:1"/>
        <g id="g6598">
          <path style="fill:#000000;fill-opacity:1;fill-rule:evenodd;stroke:none;stroke-width:1px;stroke-linecap:butt;stroke-linejoin:miter;stroke-opacity:1" d="m 85,439.09448 10,22 1,21 c 0,0 25,-19 63,-24 38,-5 68,0 91,-2 23,-2 68,-22 68,-22 0,0 -8,-12 -6,-20 2,-8 5,-21 5,-21 0,0 -62,39 -80,37 -18,-2 -64,-10 -88,-5 -24,5 -63,12 -64,14 z" id="path1338"/>
          <path style="fill:#ffffff;fill-opacity:1;fill-rule:evenodd;stroke:none;stroke-width:1px;stroke-linecap:butt;stroke-linejoin:miter;stroke-opacity:1" d="m 88.5,438.90909 9.699571,19.2809 0.969957,18.40449 c 0,0 24.248922,-16.65168 61.107292,-21.03371 36.85837,-4.38202 65.95709,0 88.2661,-1.75281 22.30901,-1.75281 65.95708,-19.28089 65.95708,-19.28089 0,0 -7.75966,-10.51686 -5.81974,-17.5281 1.93991,-7.01123 4.84978,-18.40449 4.84978,-18.40449 0,0 -60.13734,34.17977 -77.59656,32.42697 -17.45923,-1.75282 -62.07726,-8.76405 -85.35623,-4.38202 -23.27897,4.38202 -61.107293,10.51684 -62.07725,12.26966 z" id="path2213"/>
        </g>
      </g>
      <text xml:space="preserve" style="font-style:normal;font-variant:normal;font-weight:normal;font-stretch:normal;line-height:0%;font-family:'Bitstream Vera Sans';text-align:start;writing-mode:lr-tb;text-anchor:start;fill:#000000;fill-opacity:1;stroke:none" x="162.50343" y="364.95615" id="text2201"><tspan sodipodi:role="line" id="tspan2203" x="162.50343" y="364.95615" style="font-size:24px;line-height:1.25"> </tspan></text>
    </g>
  </g>
</svg>